<svg width="264" height="408" viewBox="0 0 264 408" fill="none" xmlns="http://www.w3.org/2000/svg">
<path d="M53 10H211C234.748 10 254 29.2518 254 53V355C254 378.748 234.748 398 211 398H53C29.2518 398 10 378.748 10 355V53C10 29.2518 29.2518 10 53 10Z" stroke="#606060" stroke-width="20"/>
<path d="M108.55 44.2595H155.45C155.661 44.2595 155.832 44.4306 155.832 44.6414C155.831 44.8521 155.66 45.0232 155.45 45.0232H108.55C108.34 45.0232 108.169 44.8521 108.168 44.6414C108.168 44.4306 108.339 44.2595 108.55 44.2595Z" stroke="#606060" stroke-width="20"/>
</svg>
